<svg width="57" height="46" viewBox="0 0 57 46" fill="none" xmlns="http://www.w3.org/2000/svg">
<path fill-rule="evenodd" clip-rule="evenodd" d="M19.2648 0.470335C19.1054 0.44427 18.9434 0.440269 18.7829 0.458451C15.5784 0.821382 10.7019 2.61909 7.82356 4.24241C7.63274 4.35004 7.46189 4.49213 7.31895 4.66207C6.12404 6.08274 5.04002 8.40285 4.18898 10.5954C3.31428 12.849 2.58989 15.224 2.17711 16.9401C0.833494 22.5261 0.095486 29.2348 0.000221901 35.5936C-0.00454717 35.912 0.0676247 36.2266 0.210117 36.5082C1.35709 38.7764 3.81981 40.8799 6.28811 42.4176C8.78419 43.9728 11.6946 45.2024 14.0433 45.4385C14.6128 45.4955 15.1752 45.2721 15.5631 44.8352C16.1512 44.1721 17.1497 42.6252 17.9046 41.4237C18.2472 40.8787 18.5679 40.3582 18.8226 39.9414C21.3437 40.4188 24.5063 40.6941 28.5047 40.6941C32.4986 40.6941 35.6586 40.4192 38.1784 39.943C38.4328 40.3597 38.7532 40.8795 39.0953 41.4237C39.8503 42.6252 40.8488 44.1721 41.4366 44.8352C41.8248 45.2721 42.3871 45.4955 42.9566 45.4385C45.3051 45.2024 48.2155 43.9728 50.7119 42.4176C53.18 40.8799 55.6429 38.7764 56.7899 36.5082C56.9324 36.2266 57.0044 35.912 56.9998 35.5936C56.9046 29.2348 56.1663 22.5261 54.8227 16.9401C54.4101 15.224 53.6856 12.849 52.8109 10.5954C51.9599 8.40285 50.8757 6.08274 49.681 4.66207C49.5382 4.49213 49.3671 4.35004 49.1763 4.24241C46.2979 2.61909 41.4214 0.821382 38.2168 0.458451C38.0565 0.440269 37.8945 0.44427 37.7351 0.470335C36.9493 0.59872 36.2725 1.01992 35.7734 1.41197C35.2465 1.82588 34.7571 2.33546 34.3346 2.85098C33.7223 3.59815 33.1307 4.50703 32.7494 5.36809C31.4469 5.26018 30.0336 5.20072 28.5046 5.20072C26.972 5.20072 25.5558 5.26046 24.2508 5.36884C23.8695 4.50754 23.2777 3.59835 22.6653 2.85098C22.2428 2.33546 21.7534 1.82588 21.2265 1.41197C20.7274 1.01992 20.0506 0.59872 19.2648 0.470335ZM41.9067 38.9436C41.9882 39.0747 42.072 39.2086 42.157 39.3437C42.664 40.151 43.1661 40.9254 43.555 41.4895C45.0663 41.1358 46.9881 40.3047 48.8323 39.1555C50.9024 37.8657 52.5416 36.383 53.3336 35.1237C53.2098 29.1568 52.5016 22.9618 51.2749 17.8628C50.9043 16.3223 50.233 14.1144 49.4197 12.0187C48.654 10.0464 47.8388 8.37615 47.1253 7.41586C44.6476 6.08088 40.744 4.6692 38.2012 4.28912C38.1456 4.32287 38.0713 4.3729 37.9778 4.4463C37.7183 4.65011 37.4194 4.94982 37.1182 5.31738C36.96 5.51037 36.8156 5.7042 36.6861 5.89192C37.8492 6.11304 38.8865 6.37762 39.8042 6.67126C42.4088 7.5046 44.2865 8.64857 45.2053 9.92255C45.8114 10.7627 45.6476 11.9544 44.8396 12.5845C44.0316 13.2146 42.8857 13.0444 42.2796 12.2042C42.0556 11.8937 41.0762 11.0571 38.7284 10.3059C36.4638 9.58129 33.1276 9.00354 28.5046 9.00354C23.8816 9.00354 20.5454 9.58129 18.2806 10.3059C15.9329 11.0571 14.9535 11.8937 14.7296 12.2042C14.1236 13.0444 12.9775 13.2146 12.1696 12.5845C11.3617 11.9544 11.1979 10.7627 11.8039 9.92255C12.7228 8.64857 14.6004 7.5046 17.2051 6.67126C18.1207 6.37829 19.155 6.11427 20.3148 5.89347C20.1851 5.70531 20.0403 5.51093 19.8817 5.31738C19.5805 4.94982 19.2816 4.65011 19.0221 4.4463C18.9287 4.3729 18.8542 4.32287 18.7987 4.28912C16.2558 4.6692 12.3524 6.08088 9.87454 7.41586C9.1611 8.37615 8.34583 10.0464 7.58028 12.0187C6.76685 14.1144 6.09547 16.3223 5.72492 17.8628C4.49842 22.9618 3.79013 29.1568 3.66632 35.1237C4.45816 36.383 6.09756 37.8657 8.16767 39.1555C10.0118 40.3047 11.9335 41.1358 13.445 41.4895C13.8338 40.9254 14.3358 40.151 14.8431 39.3437C14.9286 39.2074 15.0129 39.0727 15.0951 38.9408C12.1056 37.838 10.4996 36.3197 9.45969 34.6979C8.8995 33.8241 9.12659 32.6435 9.96684 32.0611C10.8071 31.4785 11.9424 31.7146 12.5026 32.5884C13.4982 34.1414 16.0992 36.8913 28.5047 36.8913C40.9101 36.8913 43.5108 34.1417 44.5066 32.5884C45.067 31.7146 46.2022 31.4785 47.0426 32.0611C47.883 32.6436 48.11 33.8241 47.5496 34.6979C46.5089 36.3212 44.9009 37.8408 41.9067 38.9436ZM15.4781 21.0149C16.4062 19.9756 17.6657 19.3885 18.9812 19.382C20.2966 19.3885 21.5562 19.9756 22.4843 21.0149C23.4124 22.0543 23.9335 23.4611 23.9335 24.9278C23.9335 26.3943 23.4124 27.8012 22.4843 28.8405C21.5562 29.8799 20.2966 30.467 18.9812 30.4735C17.6657 30.467 16.4062 29.8799 15.4781 28.8405C14.5499 27.8012 14.0289 26.3943 14.0289 24.9278C14.0289 23.4611 14.5499 22.0543 15.4781 21.0149ZM38.0239 19.382C36.7084 19.3885 35.4489 19.9756 34.5207 21.0149C33.5926 22.0543 33.0716 23.4611 33.0716 24.9278C33.0716 26.3943 33.5926 27.8012 34.5207 28.8405C35.4489 29.8799 36.7084 30.467 38.0239 30.4735C39.3395 30.467 40.5989 29.8799 41.5269 28.8405C42.4552 27.8012 42.9764 26.3943 42.9764 24.9278C42.9764 23.4611 42.4552 22.0543 41.5269 21.0149C40.5989 19.9756 39.3395 19.3885 38.0239 19.382Z" fill="black"/>
</svg>
