<svg width="54" height="52" viewBox="0 0 54 52" fill="none" xmlns="http://www.w3.org/2000/svg">
<path d="M18.341 41.9133C18.341 42.1242 18.0984 42.293 17.7926 42.293C17.4445 42.3246 17.202 42.1559 17.202 41.9133C17.202 41.7023 17.4445 41.5336 17.7504 41.5336C18.0668 41.502 18.341 41.6707 18.341 41.9133ZM15.0609 41.4387C14.9871 41.6496 15.198 41.8922 15.5145 41.9555C15.7887 42.0609 16.1051 41.9555 16.1684 41.7445C16.2316 41.5336 16.0312 41.291 15.7148 41.1961C15.4406 41.1223 15.1348 41.2277 15.0609 41.4387ZM19.7227 41.2594C19.4168 41.3332 19.2059 41.5336 19.2375 41.7762C19.2691 41.9871 19.5434 42.1242 19.8598 42.0504C20.1656 41.9766 20.3766 41.7762 20.3449 41.5652C20.3133 41.3648 20.0285 41.2277 19.7227 41.2594ZM26.6625 0.84375C12.034 0.84375 0.84375 11.9496 0.84375 26.5781C0.84375 38.2746 8.20547 48.2836 18.7207 51.8063C20.0707 52.0488 20.5453 51.2156 20.5453 50.5301C20.5453 49.8762 20.5137 46.2691 20.5137 44.0543C20.5137 44.0543 13.1309 45.6363 11.5805 40.9113C11.5805 40.9113 10.3781 37.8422 8.64844 37.0512C8.64844 37.0512 6.2332 35.3953 8.81719 35.427C8.81719 35.427 11.4434 35.6379 12.8883 38.148C15.198 42.2191 19.0688 41.0484 20.577 40.3523C20.8195 38.6648 21.5051 37.4941 22.2645 36.798C16.3688 36.1441 10.4203 35.2898 10.4203 25.1437C10.4203 22.2434 11.2219 20.7879 12.9094 18.9316C12.6352 18.2461 11.7387 15.4195 13.1836 11.7703C15.3879 11.0848 20.4609 14.618 20.4609 14.618C22.5703 14.0273 24.8379 13.7215 27.0844 13.7215C29.3309 13.7215 31.5984 14.0273 33.7078 14.618C33.7078 14.618 38.7809 11.0742 40.9852 11.7703C42.4301 15.4301 41.5336 18.2461 41.2594 18.9316C42.9469 20.7984 43.9805 22.2539 43.9805 25.1437C43.9805 35.3215 37.7684 36.1336 31.8727 36.798C32.843 37.6312 33.6656 39.2133 33.6656 41.6918C33.6656 45.2461 33.634 49.6441 33.634 50.509C33.634 51.1945 34.1191 52.0277 35.4586 51.7852C46.0055 48.2836 53.1562 38.2746 53.1562 26.5781C53.1562 11.9496 41.291 0.84375 26.6625 0.84375ZM11.0953 37.2199C10.9582 37.3254 10.9898 37.568 11.1691 37.7684C11.3379 37.9371 11.5805 38.0109 11.7176 37.8738C11.8547 37.7684 11.823 37.5258 11.6438 37.3254C11.475 37.1566 11.2324 37.0828 11.0953 37.2199ZM9.95625 36.3656C9.88242 36.5027 9.98789 36.6715 10.1988 36.777C10.3676 36.8824 10.5785 36.8508 10.6523 36.7031C10.7262 36.566 10.6207 36.3973 10.4098 36.2918C10.1988 36.2285 10.0301 36.2602 9.95625 36.3656ZM13.3734 40.1203C13.2047 40.2574 13.268 40.5738 13.5105 40.7742C13.7531 41.0168 14.059 41.0484 14.1961 40.8797C14.3332 40.7426 14.2699 40.4262 14.059 40.2258C13.827 39.9832 13.5105 39.9516 13.3734 40.1203ZM12.1711 38.5699C12.0023 38.6754 12.0023 38.9496 12.1711 39.1922C12.3398 39.4348 12.6246 39.5402 12.7617 39.4348C12.9305 39.2977 12.9305 39.0234 12.7617 38.7809C12.6141 38.5383 12.3398 38.4328 12.1711 38.5699Z" fill="black"/>
</svg>
