<svg width="90" height="85" viewBox="0 0 90 85" fill="none" xmlns="http://www.w3.org/2000/svg">
<path d="M41.0398 67.5938C37.3148 69.2781 33.1502 70.2222 28.7557 70.2222C12.8715 70.2222 0 57.9175 0 42.7397V42.7178C2.73051 43.2447 5.23786 43.7121 7.73537 44.2108C12.7894 45.227 17.7812 46.4471 22.6219 48.2067C30.7183 51.1457 36.4616 56.3492 39.6942 64.0777C40.1799 65.2413 40.6263 66.4144 41.0398 67.5969V67.5938Z" fill="#F49420"/>
<path d="M5.15951 43.2013C3.51188 43.5336 1.86425 43.8402 0 44.2048C0.0131285 28.5998 12.8824 15.957 28.758 15.957C33.1561 15.957 37.3178 16.9283 41.0398 18.6611C40.6853 19.7099 40.3046 20.7521 39.891 21.7879C36.9108 29.2581 31.8432 34.7147 24.2582 37.8867C18.1141 40.4552 11.6581 41.8944 5.15951 43.2045V43.2013Z" fill="#F49420"/>
<path d="M89.9995 42.2965C83.7143 43.4888 77.4614 44.6089 71.3934 46.4334C66.476 47.9057 61.818 49.8297 57.9542 53.1446C54.3464 56.2398 52.0773 60.1088 50.3723 64.3119C48.502 68.9155 47.3253 73.6998 46.2459 78.5051C45.8245 80.3749 45.4582 82.2536 45.0174 84.3462C44.6478 82.6089 44.3302 81.0704 43.993 79.5409C43.0044 75.0396 41.9217 70.5655 40.3529 66.2058C49.9704 61.9785 56.6187 52.8827 56.6187 42.3477C56.6187 31.8127 49.9671 22.7169 40.3496 18.4896C41.7532 14.6026 42.7613 10.6253 43.6689 6.6148C44.1259 4.60054 44.5344 2.57724 45.0076 0.346191C45.5522 2.8723 46.0222 5.19368 46.5571 7.5C47.7337 12.5853 49.1016 17.6135 51.2799 22.4399C54.4598 29.4823 59.9671 34.2003 67.5619 36.9552C72.7483 38.834 78.1292 40.0504 83.5619 41.0952C85.7078 41.5077 87.8537 41.8931 89.9963 42.2965H89.9995Z" fill="#F49420"/>
</svg>
